<svg viewBox="0 0 105 55" xmlns="http://www.w3.org/2000/svg">
  <!-- Official Akatsuki Cloud shape with white border and red body -->
  <g transform="translate(2, 2)">
    <!-- White outer border/background shape -->
    <path
      d="M 19,46.7
         C 10,46.7 3,39.7 3,30.8
         C 3,24.8 6.5,19.7 11.5,17.2
         C 10.5,15.1 10,12.8 10,10.4
         C 10,4.7 14.7,0 20.4,0
         C 26.1,0 30.8,4.7 30.8,10.4
         C 30.8,10.8 30.8,11.2 30.7,11.6
         C 33.2,7.7 37.6,5 42.6,5
         C 49.3,5 54.8,10.5 54.8,17.2
         C 54.8,17.7 54.7,18.2 54.6,18.7
         C 57.5,15.8 61.5,14 65.9,14
         C 74.6,14 81.7,21.1 81.7,29.8
         C 81.7,31.4 81.5,32.9 81,34.4
         C 83.9,34.8 86.4,36.5 87.9,39
         C 89.9,42.3 89.4,46.6 86.6,49.3
         C 83.4,52.3 78.6,52.3 75.4,49.3
         C 72,46.1 72,40.7 75.4,37.5
         C 76.8,36.1 78.7,35.4 80.7,35.4
         M 19,46.7 L 75.4,46.7"
      fill="#b20000"
      stroke="#ffffff"
      stroke-width="3.5"
      stroke-linejoin="round"
      stroke-linecap="round"
    />
  </g>
</svg>
