<svg viewBox="0 0 100 100" xmlns="http://www.w3.org/2000/svg">
  <!-- Outer ring -->
  <circle cx="50" cy="50" r="48" fill="none" stroke="currentColor" stroke-width="1.5"/>
  <!-- Iris background -->
  <circle cx="50" cy="50" r="44" fill="#c0392b"/>
  <!-- Pinwheel blade 1 -->
  <path d="M50 50 Q35 15 50 8 Q55 25 65 35 Z" fill="#1a1a1a"/>
  <!-- Pinwheel blade 2 -->
  <path d="M50 50 Q85 35 92 50 Q75 55 65 65 Z" fill="#1a1a1a"/>
  <!-- Pinwheel blade 3 -->
  <path d="M50 50 Q65 85 50 92 Q45 75 35 65 Z" fill="#1a1a1a"/>
  <!-- Pinwheel blade 4 (optional for complexity) — removed for 3-blade symmetry -->
  <!-- Curved connectors -->
  <path d="M50 8 Q70 10 65 35" fill="none" stroke="#1a1a1a" stroke-width="3" stroke-linecap="round"/>
  <path d="M92 50 Q90 70 65 65" fill="none" stroke="#1a1a1a" stroke-width="3" stroke-linecap="round"/>
  <path d="M50 92 Q30 90 35 65" fill="none" stroke="#1a1a1a" stroke-width="3" stroke-linecap="round"/>
  <!-- Inner ring -->
  <circle cx="50" cy="50" r="12" fill="none" stroke="#1a1a1a" stroke-width="2"/>
  <!-- Pupil -->
  <circle cx="50" cy="50" r="6" fill="#1a1a1a"/>
  <!-- Highlight -->
  <circle cx="44" cy="42" r="3" fill="rgba(255,255,255,0.2)"/>
</svg>
