<svg viewBox="0 0 140 100" xmlns="http://www.w3.org/2000/svg">
  <!-- Body -->
  <path d="M70,45 Q60,38 48,42 Q42,44 38,50 Q36,55 40,58 Q50,62 65,58 Q75,55 80,50 Q82,46 78,43 Z"
    fill="currentColor" opacity="0.9"/>
  <!-- Left wing -->
  <path d="M48,42 Q30,22 8,14 Q12,20 14,28 Q16,36 20,40 Q28,46 38,50"
    fill="none" stroke="currentColor" stroke-width="2.5" stroke-linejoin="round" stroke-linecap="round"/>
  <!-- Left wing feathers -->
  <path d="M8,14 Q14,16 18,22" fill="none" stroke="currentColor" stroke-width="1.5" stroke-linecap="round"/>
  <path d="M14,28 Q20,28 24,34" fill="none" stroke="currentColor" stroke-width="1.5" stroke-linecap="round"/>
  <path d="M20,40 Q28,38 32,44" fill="none" stroke="currentColor" stroke-width="1.5" stroke-linecap="round"/>
  <!-- Right wing -->
  <path d="M78,43 Q96,22 132,14 Q128,20 126,28 Q124,36 120,40 Q112,46 80,50"
    fill="none" stroke="currentColor" stroke-width="2.5" stroke-linejoin="round" stroke-linecap="round"/>
  <!-- Right wing feathers -->
  <path d="M132,14 Q126,16 122,22" fill="none" stroke="currentColor" stroke-width="1.5" stroke-linecap="round"/>
  <path d="M126,28 Q120,28 116,34" fill="none" stroke="currentColor" stroke-width="1.5" stroke-linecap="round"/>
  <path d="M120,40 Q112,38 108,44" fill="none" stroke="currentColor" stroke-width="1.5" stroke-linecap="round"/>
  <!-- Head -->
  <ellipse cx="56" cy="42" rx="6" ry="5" fill="currentColor"/>
  <!-- Beak -->
  <path d="M50,42 L44,44 L50,45" fill="currentColor"/>
  <!-- Eye -->
  <circle cx="54" cy="41" r="1.2" fill="white" opacity="0.8"/>
  <!-- Tail feathers -->
  <path d="M80,50 Q88,56 92,68 Q86,62 80,60 Q76,58 74,56" fill="none" stroke="currentColor" stroke-width="2" stroke-linecap="round"/>
  <path d="M80,50 Q90,54 96,64" fill="none" stroke="currentColor" stroke-width="1.5" stroke-linecap="round"/>
  <!-- Talons (subtle) -->
  <path d="M62,58 L60,66 M64,58 L64,66 M66,58 L68,66" stroke="currentColor" stroke-width="1.2" stroke-linecap="round"/>
</svg>
